<svg width="25" height="19" viewBox="0 0 25 19" fill="none" xmlns="http://www.w3.org/2000/svg">
<path d="M0 9.5C0 9.5 4.6875 0.90625 12.5 0.90625C20.3125 0.90625 25 9.5 25 9.5C25 9.5 20.3125 18.0938 12.5 18.0938C4.6875 18.0938 0 9.5 0 9.5ZM12.5 14.9688C13.9504 14.9688 15.3414 14.3926 16.367 13.367C17.3926 12.3414 17.9688 10.9504 17.9688 9.5C17.9688 8.0496 17.3926 6.6586 16.367 5.63301C15.3414 4.60742 13.9504 4.03125 12.5 4.03125C11.0496 4.03125 9.6586 4.60742 8.63301 5.63301C7.60742 6.6586 7.03125 8.0496 7.03125 9.5C7.03125 10.9504 7.60742 12.3414 8.63301 13.367C9.6586 14.3926 11.0496 14.9688 12.5 14.9688Z" fill="black"/>
</svg>
