<svg width="28" height="26" viewBox="0 0 28 26" fill="none" xmlns="http://www.w3.org/2000/svg">
<path d="M13.8154 25.1511L11.8373 23.3644C10.0507 21.7479 8.73194 20.5461 7.88114 19.7592C7.03035 18.9722 6.0094 17.9406 4.81828 16.6644C3.62717 15.3882 2.76575 14.346 2.234 13.5377C1.70225 12.7295 1.23432 11.8042 0.83019 10.762C0.426063 9.71979 0.223999 8.6882 0.223999 7.66725C0.223999 5.58281 0.947174 3.81741 2.39352 2.37106C3.83987 0.924713 5.60527 0.201538 7.68971 0.201538C10.157 0.201538 12.1989 1.15868 13.8154 3.07297C15.4319 1.15868 17.4738 0.201538 19.9411 0.201538C22.0681 0.201538 23.8548 0.924713 25.3011 2.37106C26.7475 3.81741 27.4707 5.58281 27.4707 7.66725C27.4707 8.6882 27.258 9.71979 26.8326 10.762C26.4072 11.8042 25.9392 12.7295 25.4288 13.5377C24.9183 14.346 24.0569 15.3882 22.8445 16.6644C21.6321 17.9406 20.6111 18.9722 19.7816 19.7592C18.9521 20.5461 17.6227 21.7692 15.7935 23.4282L13.8154 25.1511Z" fill="#C4C4C4"/>
</svg>
