<svg width="16" height="16" viewBox="0 0 16 16" fill="none" xmlns="http://www.w3.org/2000/svg">
<g clip-path="url(#clip0)">
<path d="M0.00197601 3C0.00197601 2.46957 0.21269 1.96086 0.587763 1.58579C0.962835 1.21071 1.47154 1 2.00198 1H14.002C14.5324 1 15.0411 1.21071 15.4162 1.58579C15.7913 1.96086 16.002 2.46957 16.002 3V13C16.002 13.5304 15.7913 14.0391 15.4162 14.4142C15.0411 14.7893 14.5324 15 14.002 15H2.00198C1.47154 15 0.962835 14.7893 0.587763 14.4142C0.21269 14.0391 0.00197601 13.5304 0.00197601 13V3ZM1.00198 12V13C1.00198 13.2652 1.10733 13.5196 1.29487 13.7071C1.48241 13.8946 1.73676 14 2.00198 14H14.002C14.2672 14 14.5215 13.8946 14.7091 13.7071C14.8966 13.5196 15.002 13.2652 15.002 13V9.5L11.225 7.553C11.1312 7.50602 11.025 7.48973 10.9215 7.50642C10.8179 7.52311 10.7222 7.57194 10.648 7.646L6.93798 11.356L4.27798 9.584C4.18194 9.52006 4.06674 9.4913 3.95192 9.5026C3.83709 9.5139 3.72971 9.56456 3.64798 9.646L1.00198 12ZM6.00198 5.5C6.00198 5.10218 5.84394 4.72064 5.56264 4.43934C5.28133 4.15804 4.8998 4 4.50198 4C4.10415 4 3.72262 4.15804 3.44132 4.43934C3.16001 4.72064 3.00198 5.10218 3.00198 5.5C3.00198 5.89782 3.16001 6.27936 3.44132 6.56066C3.72262 6.84196 4.10415 7 4.50198 7C4.8998 7 5.28133 6.84196 5.56264 6.56066C5.84394 6.27936 6.00198 5.89782 6.00198 5.5Z" fill="black"/>
</g>
<defs>
<clipPath id="clip0">
<rect width="16" height="16" fill="white"/>
</clipPath>
</defs>
</svg>
