<svg width="16" height="16" viewBox="0 0 16 16" fill="none" xmlns="http://www.w3.org/2000/svg">
<path d="M8 0.125C6.44247 0.125 4.91992 0.586861 3.62488 1.45218C2.32984 2.31749 1.32048 3.5474 0.724445 4.98637C0.128404 6.42534 -0.0275468 8.00874 0.276312 9.53634C0.58017 11.0639 1.33019 12.4671 2.43153 13.5685C3.53287 14.6698 4.93606 15.4198 6.46366 15.7237C7.99126 16.0275 9.57466 15.8716 11.0136 15.2756C12.4526 14.6795 13.6825 13.6702 14.5478 12.3751C15.4131 11.0801 15.875 9.55753 15.875 8C15.875 5.91142 15.0453 3.90838 13.5685 2.43153C12.0916 0.954685 10.0886 0.125 8 0.125ZM5.46875 5.1875C5.74688 5.1875 6.01876 5.26998 6.25002 5.4245C6.48127 5.57902 6.66152 5.79864 6.76795 6.0556C6.87439 6.31256 6.90224 6.59531 6.84798 6.8681C6.79372 7.14088 6.65978 7.39145 6.46312 7.58812C6.26645 7.78479 6.01588 7.91872 5.74309 7.97298C5.47031 8.02724 5.18756 7.99939 4.9306 7.89296C4.67364 7.78652 4.45401 7.60628 4.29949 7.37502C4.14497 7.14376 4.0625 6.87188 4.0625 6.59375C4.061 6.40866 4.09635 6.22512 4.16649 6.05383C4.23663 5.88254 4.34015 5.72692 4.47104 5.59604C4.60192 5.46516 4.75754 5.36163 4.92883 5.29149C5.10012 5.22135 5.28366 5.186 5.46875 5.1875ZM8 12.5C7.22354 12.4987 6.46063 12.2965 5.78545 11.9131C5.11026 11.5296 4.54578 10.978 4.14687 10.3119L5.10875 9.74938C5.40893 10.2479 5.8329 10.6603 6.33949 10.9466C6.84609 11.2329 7.4181 11.3833 8 11.3833C8.58189 11.3833 9.1539 11.2329 9.6605 10.9466C10.1671 10.6603 10.5911 10.2479 10.8912 9.74938L11.8531 10.3119C11.4542 10.978 10.8897 11.5296 10.2145 11.9131C9.53936 12.2965 8.77645 12.4987 8 12.5ZM10.5312 8C10.2531 8 9.98123 7.91752 9.74998 7.763C9.51872 7.60848 9.33848 7.38886 9.23204 7.1319C9.12561 6.87494 9.09776 6.59219 9.15202 6.3194C9.20628 6.04662 9.34021 5.79605 9.53688 5.59938C9.73355 5.40271 9.98411 5.26878 10.2569 5.21452C10.5297 5.16026 10.8124 5.18811 11.0694 5.29454C11.3264 5.40098 11.546 5.58122 11.7005 5.81248C11.855 6.04374 11.9375 6.31562 11.9375 6.59375C11.939 6.77884 11.9036 6.96238 11.8335 7.13367C11.7634 7.30496 11.6598 7.46058 11.529 7.59146C11.3981 7.72234 11.2425 7.82587 11.0712 7.89601C10.8999 7.96615 10.7163 8.0015 10.5312 8Z" fill="black"/>
</svg>
