<svg width="16" height="16" viewBox="0 0 16 16" fill="none" xmlns="http://www.w3.org/2000/svg">
<path d="M13.8333 0.5H2.16667C1.25 0.5 0.5 1.25 0.5 2.16667V13.8333C0.5 14.75 1.25 15.5 2.16667 15.5H13.8333C14.75 15.5 15.5 14.75 15.5 13.8333V2.16667C15.5 1.25 14.75 0.5 13.8333 0.5ZM5.91667 8.83333V8H6.75V8.83333C6.75 9.29167 6.375 9.66667 5.91667 9.66667H5.08333C4.625 9.66667 4.25 9.29167 4.25 8.83333V7.16667C4.25 6.70833 4.625 6.33333 5.08333 6.33333H5.91667C6.375 6.33333 6.75 6.70833 6.75 7.16667H5.08333V8.83333H5.91667ZM8.41667 9.66667H7.58333V6.33333H8.41667V9.66667ZM11.75 7.16667H10.0833V7.58333H11.3333V8.41667H10.0833V9.66667H9.25V6.33333H11.75V7.16667Z" fill="black"/>
</svg>
