<svg width="23" height="20" viewBox="0 0 23 20" fill="none" xmlns="http://www.w3.org/2000/svg">
<path d="M16.5392 1.6875C17.108 1.68702 17.6712 1.8001 18.1958 2.02011C18.7203 2.24013 19.1956 2.56264 19.5939 2.96875C20.4145 3.80186 20.8745 4.92434 20.8745 6.09375C20.8745 7.26316 20.4145 8.38564 19.5939 9.21875L11.5002 17.4141L3.40641 9.21875C2.58577 8.38564 2.12578 7.26316 2.12578 6.09375C2.12578 4.92434 2.58577 3.80186 3.40641 2.96875C3.80492 2.56293 4.2803 2.24059 4.80478 2.02054C5.32926 1.8005 5.89233 1.68717 6.4611 1.68717C7.02987 1.68717 7.59294 1.8005 8.11742 2.02054C8.6419 2.24059 9.11728 2.56293 9.51579 2.96875L11.5002 5L13.4767 2.98438C13.8738 2.57343 14.3496 2.24677 14.8758 2.02394C15.4021 1.80111 15.9678 1.68668 16.5392 1.6875ZM16.5392 0.125002C15.7624 0.124344 14.9932 0.278795 14.2768 0.5793C13.5604 0.879806 12.9113 1.32032 12.3673 1.875L11.5002 2.75L10.633 1.875C10.0884 1.32132 9.43906 0.881572 8.72281 0.581401C8.00655 0.28123 7.23771 0.126639 6.4611 0.126639C5.68449 0.126639 4.91564 0.28123 4.19939 0.581401C3.48313 0.881572 2.83379 1.32132 2.28922 1.875C1.18131 3.00283 0.560547 4.52059 0.560547 6.10156C0.560547 7.68253 1.18131 9.20029 2.28922 10.3281L11.5002 19.6563L20.7111 10.3281C21.819 9.20029 22.4398 7.68253 22.4398 6.10156C22.4398 4.52059 21.819 3.00283 20.7111 1.875C20.1667 1.32102 19.5174 0.880973 18.8011 0.580519C18.0849 0.280064 17.316 0.125216 16.5392 0.125002Z" fill="black"/>
</svg>
