<svg width="25" height="25" viewBox="0 0 25 25" fill="none" xmlns="http://www.w3.org/2000/svg">
<path d="M24.2188 24.2188H23.4375C20.2263 24.2186 17.1228 23.0609 14.696 20.9579L13.8744 20.2458C13.4176 20.2902 12.9589 20.3124 12.5 20.3125C9.3981 20.3125 6.47534 19.3149 4.27012 17.5035C2.02026 15.6554 0.78125 13.1848 0.78125 10.5469C0.78125 7.90894 2.02026 5.43833 4.27012 3.59028C6.47534 1.77886 9.3981 0.78125 12.5 0.78125C15.6019 0.78125 18.5247 1.77886 20.7299 3.59028C22.9797 5.43833 24.2188 7.90894 24.2188 10.5469C24.2176 11.9491 23.8637 13.3286 23.1896 14.5582C22.6044 15.629 21.8251 16.5817 20.8915 17.3676C21.5892 19.1418 22.6438 20.7538 23.9899 22.1039L24.2188 22.3327V24.2188ZM14.3777 18.6144L15.7194 19.7771C17.5698 21.3808 19.8738 22.3682 22.3112 22.6023C20.9664 21.0991 19.9278 19.3479 19.2537 17.4469L19.0391 16.8384L19.4888 16.4933C21.5314 14.9257 22.6562 12.8139 22.6562 10.5469C22.6562 6.02363 18.1001 2.34375 12.5 2.34375C6.89985 2.34375 2.34375 6.02363 2.34375 10.5469C2.34375 15.0701 6.89985 18.75 12.5 18.75C13.0125 18.7499 13.5245 18.7188 14.0332 18.6566L14.3777 18.6144Z" fill="black"/>
</svg>
