<svg width="21" height="20" viewBox="0 0 21 20" fill="none" xmlns="http://www.w3.org/2000/svg">
<path d="M2.28165 19.0144H3.28234V6.0055H2.28165C1.75085 6.0055 1.24179 6.21636 0.866463 6.59169C0.491132 6.96702 0.280273 7.47608 0.280273 8.00688V17.0131C0.280273 17.5439 0.491132 18.0529 0.866463 18.4282C1.24179 18.8036 1.75085 19.0144 2.28165 19.0144ZM18.2927 6.0055H11.2878L12.4106 2.63518C12.5108 2.33439 12.5381 2.0141 12.4902 1.7007C12.4424 1.38729 12.3208 1.08974 12.1354 0.832539C11.95 0.575343 11.7062 0.365866 11.424 0.22136C11.1418 0.0768545 10.8293 0.00145546 10.5123 0.00137329H10.2872L5.28371 5.44311V19.0144H16.2913L20.206 10.4125L20.294 10.0083V8.00688C20.294 7.47608 20.0832 6.96702 19.7078 6.59169C19.3325 6.21636 18.8235 6.0055 18.2927 6.0055Z" fill="black"/>
</svg>
